<svg width="130" height="130" viewBox="0 0 130 130" fill="none" xmlns="http://www.w3.org/2000/svg">
<path d="M36.8701 97.6924C36.861 97.7471 36.8451 97.7858 36.8223 97.8086C36.7995 97.8314 36.5762 97.8815 36.1523 97.959C35.7285 98.0365 35.3001 98.0752 34.8672 98.0752C34.1562 98.0752 33.6117 97.8451 33.2334 97.3848C32.8551 96.9245 32.666 96.2979 32.666 95.5049C32.666 94.0967 32.8346 92.4606 33.1719 90.5967C33.3496 89.5941 33.5684 88.89 33.8281 88.4844C34.1016 88.0605 34.4297 87.7643 34.8125 87.5957C35.291 87.3861 35.8014 87.2812 36.3438 87.2812C36.8906 87.2812 37.2552 87.2972 37.4375 87.3291C37.6243 87.3564 37.7292 87.3724 37.752 87.377C37.8112 87.3952 37.8408 87.4521 37.8408 87.5479L37.6836 88.8193C37.6654 88.9378 37.6198 88.9971 37.5469 88.9971C37.474 88.9971 37.3053 88.9788 37.041 88.9424C36.7767 88.9014 36.5625 88.8809 36.3984 88.8809C35.9609 88.8809 35.6283 88.9925 35.4004 89.2158C35.1725 89.4346 35.0016 89.8584 34.8877 90.4873C34.7783 91.1117 34.6712 91.9525 34.5664 93.0098C34.4616 94.0625 34.4092 94.8691 34.4092 95.4297C34.4092 96.0905 34.7008 96.4209 35.2842 96.4209C35.4528 96.4209 35.7467 96.3936 36.166 96.3389C36.5853 96.2796 36.8245 96.25 36.8838 96.25C36.9795 96.25 37.0273 96.307 37.0273 96.4209L36.8701 97.6924ZM41.3818 86.6182L40.9512 90.4531C41.5664 89.9336 42.193 89.6738 42.8311 89.6738C43.5967 89.6738 44.0798 90.0931 44.2803 90.9316C44.335 91.1595 44.3623 91.376 44.3623 91.5811C44.3623 91.7816 44.3555 91.9434 44.3418 92.0664L43.6855 97.7949C43.6673 97.9089 43.6104 97.9704 43.5146 97.9795L42.1338 98.0273C42.0335 98.0182 41.9834 97.9749 41.9834 97.8975L42.6055 92.4834C42.6191 92.3649 42.626 92.2578 42.626 92.1621C42.626 91.7884 42.5371 91.5355 42.3594 91.4033C42.1862 91.2666 41.9629 91.1982 41.6895 91.1982C41.4206 91.1982 41.1403 91.2552 40.8486 91.3691L40.124 97.7949C40.1058 97.9089 40.0488 97.9704 39.9531 97.9795L38.5723 98.0273C38.472 98.0182 38.4219 97.9749 38.4219 97.8975L39.6934 86.666C39.7025 86.6022 39.7161 86.5566 39.7344 86.5293C39.7572 86.502 39.8005 86.486 39.8643 86.4814L41.2041 86.4336C41.3226 86.4473 41.3818 86.5088 41.3818 86.6182ZM51.7861 89.9131L50.8975 97.7949C50.8838 97.9134 50.8245 97.9749 50.7197 97.9795L49.3389 98.0273C49.2432 98.0182 49.1953 97.9749 49.1953 97.8975L49.3252 96.9678C49.1156 97.3232 48.8854 97.5967 48.6348 97.7881C48.3887 97.9795 48.1107 98.0752 47.8008 98.0752C47.4909 98.0752 47.2266 98.0228 47.0078 97.918C46.7891 97.8086 46.609 97.6673 46.4678 97.4941C46.3311 97.3164 46.2194 97.1045 46.1328 96.8584C45.9733 96.4209 45.8936 95.8239 45.8936 95.0674C45.8936 94.3063 45.9437 93.6615 46.0439 93.1328C46.1488 92.6042 46.2399 92.2031 46.3174 91.9297C46.3949 91.6517 46.4974 91.3669 46.625 91.0752C46.7572 90.7835 46.9053 90.5397 47.0693 90.3438C47.443 89.8971 47.9147 89.6738 48.4844 89.6738C48.9082 89.6738 49.2318 89.7764 49.4551 89.9814C49.6784 90.182 49.8652 90.4805 50.0156 90.877L50.0977 89.9473C50.1068 89.847 50.1637 89.7923 50.2686 89.7832L51.6084 89.7354C51.7269 89.7445 51.7861 89.8037 51.7861 89.9131ZM47.6162 94.8691C47.6162 95.9583 47.9079 96.5029 48.4912 96.5029C48.7464 96.5029 48.9538 96.3867 49.1133 96.1543C49.2728 95.9173 49.4095 95.4456 49.5234 94.7393C49.6419 94.0329 49.7012 93.5179 49.7012 93.1943C49.7012 92.8708 49.6989 92.6657 49.6943 92.5791C49.6898 92.4925 49.6807 92.3786 49.667 92.2373C49.6533 92.0915 49.6283 91.9707 49.5918 91.875C49.5553 91.7747 49.5075 91.6745 49.4482 91.5742C49.3298 91.3783 49.1383 91.2803 48.874 91.2803C48.6097 91.2803 48.4001 91.3988 48.2451 91.6357C48.0902 91.8682 47.9694 92.1803 47.8828 92.5723C47.7051 93.4108 47.6162 94.1764 47.6162 94.8691ZM57.5283 91.4785L56.7969 91.4033C56.2044 91.4033 55.7077 91.5218 55.3066 91.7588L54.6299 97.7881C54.6117 97.902 54.5547 97.9635 54.459 97.9727L53.0781 98.0273C52.9779 98.0182 52.9277 97.9749 52.9277 97.8975L53.8301 89.9473C53.8483 89.847 53.9053 89.7923 54.001 89.7832L55.334 89.7354C55.457 89.7399 55.5186 89.7992 55.5186 89.9131L55.4365 90.6172C55.7282 90.321 56.0107 90.0908 56.2842 89.9268C56.5576 89.7581 56.8311 89.6738 57.1045 89.6738C57.3825 89.6738 57.5944 89.6852 57.7402 89.708C57.8359 89.7262 57.8838 89.79 57.8838 89.8994C57.8838 90.2139 57.8314 90.681 57.7266 91.3008C57.7038 91.4193 57.6377 91.4785 57.5283 91.4785ZM61.8828 98.2461L62.0605 96.7764C61.8327 97.1956 61.5889 97.5169 61.3291 97.7402C61.0739 97.9635 60.7822 98.0752 60.4541 98.0752C60.1305 98.0752 59.8594 98.0228 59.6406 97.918C59.4219 97.8086 59.2419 97.6673 59.1006 97.4941C58.9639 97.3164 58.8522 97.1045 58.7656 96.8584C58.6061 96.4209 58.5264 95.8239 58.5264 95.0674C58.5264 94.3063 58.5765 93.6615 58.6768 93.1328C58.7816 92.6042 58.8727 92.2031 58.9502 91.9297C59.0277 91.6517 59.1302 91.3669 59.2578 91.0752C59.39 90.7835 59.5381 90.5397 59.7021 90.3438C60.0758 89.8971 60.5475 89.6738 61.1172 89.6738C61.5365 89.6738 61.8577 89.7741 62.0811 89.9746C62.3044 90.1751 62.4935 90.4736 62.6484 90.8701L62.7168 89.9541C62.7259 89.8447 62.7852 89.7878 62.8945 89.7832L64.2754 89.7354C64.3711 89.749 64.4189 89.7969 64.4189 89.8789L63.4893 98.1709C63.3571 99.3968 62.9766 100.27 62.3477 100.789C61.8509 101.204 61.1833 101.411 60.3447 101.411C59.8115 101.411 59.2715 101.35 58.7246 101.227C58.6471 101.213 58.5947 101.192 58.5674 101.165C58.54 101.142 58.5264 101.097 58.5264 101.028L58.6631 99.791C58.6768 99.668 58.7269 99.6064 58.8135 99.6064C58.8727 99.6064 59.0391 99.652 59.3125 99.7432C59.5859 99.8343 59.8913 99.8799 60.2285 99.8799C60.5658 99.8799 60.8278 99.848 61.0146 99.7842C61.2061 99.7249 61.3587 99.6224 61.4727 99.4766C61.6732 99.2305 61.8099 98.8203 61.8828 98.2461ZM60.249 94.8691C60.249 95.9583 60.5407 96.5029 61.124 96.5029C61.3792 96.5029 61.5866 96.3867 61.7461 96.1543C61.9056 95.9173 62.0423 95.4456 62.1562 94.7393C62.2747 94.0329 62.334 93.5179 62.334 93.1943C62.334 92.8708 62.3317 92.6657 62.3271 92.5791C62.3226 92.4925 62.3135 92.3786 62.2998 92.2373C62.2861 92.0915 62.2611 91.9707 62.2246 91.875C62.1882 91.7747 62.1403 91.6745 62.0811 91.5742C61.9626 91.3783 61.7712 91.2803 61.5068 91.2803C61.2425 91.2803 61.0329 91.3988 60.8779 91.6357C60.723 91.8682 60.6022 92.1803 60.5156 92.5723C60.3379 93.4108 60.249 94.1764 60.249 94.8691ZM65.9639 96.7217C65.859 96.4482 65.7861 96.1794 65.7451 95.915C65.7087 95.6462 65.6904 95.2793 65.6904 94.8145C65.6904 94.3496 65.7406 93.7754 65.8408 93.0918C66.1735 90.8132 67.208 89.6738 68.9443 89.6738C69.6143 89.6738 70.127 89.904 70.4824 90.3643C70.8379 90.8245 71.0156 91.4215 71.0156 92.1553C71.0156 92.889 70.9701 93.6022 70.8789 94.2949C70.8652 94.418 70.7946 94.4818 70.667 94.4863L67.29 94.6025C67.2855 94.6709 67.2832 94.762 67.2832 94.876C67.2832 95.391 67.3721 95.7988 67.5498 96.0996C67.7321 96.4004 68.0055 96.5508 68.3701 96.5508C68.7347 96.5508 69.0719 96.4984 69.3818 96.3936C69.6963 96.2842 69.8809 96.2295 69.9355 96.2295C69.9902 96.2295 70.0381 96.2477 70.0791 96.2842C70.1201 96.3206 70.1406 96.3708 70.1406 96.4346L70.0039 97.6377C69.9993 97.7061 69.9857 97.7516 69.9629 97.7744C69.9447 97.7926 69.9059 97.8132 69.8467 97.8359C69.2952 97.9954 68.7643 98.0752 68.2539 98.0752C67.7435 98.0752 67.347 98.0137 67.0645 97.8906C66.7819 97.7676 66.554 97.6104 66.3809 97.4189C66.2122 97.223 66.0732 96.9906 65.9639 96.7217ZM67.4541 92.8867L67.3926 93.3242L69.1768 93.2354C69.2542 93.2308 69.3044 93.2171 69.3271 93.1943C69.3955 93.126 69.4297 92.9391 69.4297 92.6338C69.4297 92.3239 69.4183 92.1074 69.3955 91.9844C69.3773 91.8568 69.3431 91.7269 69.293 91.5947C69.1882 91.3031 69.0081 91.1572 68.7529 91.1572C68.5023 91.1572 68.304 91.2005 68.1582 91.2871C67.8346 91.4876 67.5999 92.0208 67.4541 92.8867ZM78.1182 87.5137L77.1406 96.2021L79.7588 96.0996C79.8773 96.1042 79.9365 96.1634 79.9365 96.2773L79.7588 97.6924C79.7451 97.8109 79.6859 97.8724 79.5811 97.877L75.3701 98.0273C75.2744 98.0273 75.2266 97.984 75.2266 97.8975L76.3955 87.5547C76.4046 87.5 76.4183 87.4613 76.4365 87.4385C76.4593 87.4157 76.5026 87.402 76.5664 87.3975L77.9404 87.3496C78.0589 87.3542 78.1182 87.4089 78.1182 87.5137ZM83.0879 88.9902C82.8053 88.9902 82.5798 88.9014 82.4111 88.7236C82.2425 88.5459 82.1582 88.318 82.1582 88.04C82.1582 87.7575 82.2699 87.5068 82.4932 87.2881C82.721 87.0648 82.9762 86.9531 83.2588 86.9531C83.5413 86.9531 83.7692 87.042 83.9424 87.2197C84.1201 87.3975 84.209 87.6276 84.209 87.9102C84.209 88.1882 84.0928 88.4388 83.8604 88.6621C83.6279 88.8809 83.3704 88.9902 83.0879 88.9902ZM83.8467 89.9131L82.958 97.7949C82.9489 97.8587 82.9329 97.9043 82.9102 97.9316C82.8874 97.959 82.8441 97.9749 82.7803 97.9795L81.4062 98.0273C81.306 98.0182 81.2559 97.9749 81.2559 97.8975L82.1582 89.9473C82.1764 89.847 82.2334 89.7923 82.3291 89.7832L83.6621 89.7354C83.7852 89.7445 83.8467 89.8037 83.8467 89.9131ZM87.5859 89.9131L87.5107 90.542C88.167 89.9632 88.7959 89.6738 89.3975 89.6738C90.1631 89.6738 90.6462 90.0931 90.8467 90.9316C90.9014 91.1595 90.9287 91.376 90.9287 91.5811C90.9287 91.7816 90.9219 91.9434 90.9082 92.0664L90.252 97.7949C90.2337 97.9089 90.1768 97.9704 90.0811 97.9795L88.7002 98.0273C88.5999 98.0182 88.5498 97.9749 88.5498 97.8975L89.1719 92.4834C89.1855 92.3649 89.1924 92.2578 89.1924 92.1621C89.1924 91.7884 89.1035 91.5355 88.9258 91.4033C88.7526 91.2666 88.5316 91.1982 88.2627 91.1982C87.9938 91.1982 87.7135 91.2552 87.4219 91.3691L86.6904 97.7949C86.6722 97.9089 86.6152 97.9704 86.5195 97.9795L85.1387 98.0273C85.0384 98.0182 84.9883 97.9749 84.9883 97.8975L85.8906 89.9473C85.9089 89.847 85.9658 89.7923 86.0615 89.7832L87.4014 89.7354C87.5244 89.7399 87.5859 89.7992 87.5859 89.9131ZM97.6143 97.8564C97.6143 97.9385 97.5527 97.9795 97.4297 97.9795L95.9736 98.0273C95.9053 98.0228 95.8551 97.9795 95.8232 97.8975L94.4287 93.9668L93.998 97.7949C93.9889 97.8587 93.973 97.9043 93.9502 97.9316C93.9274 97.959 93.8841 97.9749 93.8203 97.9795L92.4463 98.0273C92.346 98.0182 92.2959 97.9749 92.2959 97.8975L93.5605 86.666C93.5697 86.6022 93.5856 86.5566 93.6084 86.5293C93.6312 86.502 93.6745 86.486 93.7383 86.4814L95.0781 86.4336C95.1966 86.4473 95.2559 86.5088 95.2559 86.6182L94.4766 93.5361L96.2949 89.9541C96.3496 89.8447 96.4248 89.7878 96.5205 89.7832L97.9355 89.7354C98.0495 89.749 98.1064 89.8014 98.1064 89.8926C98.1064 89.9427 98.0973 89.9883 98.0791 90.0293L96.0352 93.5771L97.5938 97.7744C97.6074 97.8063 97.6143 97.8337 97.6143 97.8564Z" fill="white"/>
<path d="M44.6154 52.117C40.2879 54.1665 33.8293 54.498 28 55.5C22.1707 56.502 13.7455 57.0215 13.1685 61.0606C12.5914 65.0996 12.9776 73.1777 14.8993 74.6203C16.821 76.0628 18.65 75.9109 18.65 75.9109C18.65 75.9109 17.3038 70.8697 19.8041 67.1191C22.3045 63.3686 24.9972 62.5031 28.7477 62.5031C32.2098 62.5031 35.236 63.7614 37.6914 66.8306C40.1468 69.8999 39.4223 75.9109 39.4223 75.9109H87.6025C87.6025 75.9109 86.2673 70.7989 89.0451 66.8306C91.0646 63.9456 93.9598 62.631 97.9887 62.5031C101.587 62.3888 104.047 63.9456 106.067 66.2536C108.669 69.2275 108.375 74.6202 108.375 74.6202C108.375 74.6202 115.01 74.9088 117.318 72.3122C118.857 70.5812 117.03 59.618 117.03 53.848C117.03 52.4054 113.251 51.0579 111.548 48.0779C109.24 44.0388 113.777 45.3542 102.605 42.8848C91.4324 40.4154 75.0101 40.6825 64.2337 42.8848C53.0613 45.1681 48.9429 50.0674 44.6154 52.117Z" stroke="white" stroke-width="3" stroke-linecap="round"/>
<circle cx="28.748" cy="73.1777" r="7.07811" stroke="white" stroke-width="2"/>
<circle cx="97.9883" cy="73.1777" r="7.07811" stroke="white" stroke-width="2"/>
<path d="M68.9659 126.034L68.8686 124.537L68.8686 124.537L68.9659 126.034ZM117.57 98.7092L116.518 99.7783L116.518 99.7783L117.57 98.7092ZM127.87 95.8246C128.452 95.2341 128.444 94.2844 127.854 93.7033C127.263 93.1222 126.313 93.1298 125.732 93.7203L127.87 95.8246ZM122.2 90.2437C122.781 89.6532 122.773 88.7035 122.183 88.1224C121.592 87.5413 120.643 87.5489 120.061 88.1394L122.2 90.2437ZM122.311 104.778L123.38 105.83L122.311 104.778ZM122.3 103.364L121.248 104.433L122.3 103.364ZM113.556 112.001L113.04 113.409L113.556 112.001ZM115.67 111.526L116.739 112.578L115.67 111.526ZM110.97 93.616L112.039 94.6682L110.97 93.616ZM112.384 93.6047L111.332 94.6738L112.384 93.6047ZM103.939 102.513L102.556 103.094L103.939 102.513ZM104.357 100.335L103.288 99.2829L104.357 100.335ZM125.956 59.9747L127.451 59.852L125.956 59.9747ZM124.976 61.0429L124.989 62.5429L124.976 61.0429ZM5.46271 68.8686C3.32614 35.9871 28.2499 7.59927 61.1314 5.4627L60.9369 2.46902C26.402 4.71302 0.225018 34.5282 2.46902 69.0631L5.46271 68.8686ZM61.1314 5.4627C93.6674 3.34858 121.804 27.7293 124.461 60.0974L127.451 59.852C124.66 25.8552 95.1092 0.248575 60.9369 2.46902L61.1314 5.4627ZM68.8686 124.537C35.9871 126.674 7.59928 101.75 5.46271 68.8686L2.46902 69.0631C4.71302 103.598 34.5282 129.775 69.0631 127.531L68.8686 124.537ZM124.964 59.543C122.949 59.5598 120.785 59.5778 119.126 59.5916C118.296 59.5985 117.592 59.6044 117.096 59.6085C116.848 59.6106 116.651 59.6122 116.517 59.6133C116.45 59.6139 116.398 59.6143 116.363 59.6146C116.346 59.6148 116.333 59.6149 116.324 59.6149C116.319 59.615 116.316 59.615 116.314 59.615C116.313 59.615 116.312 59.615 116.311 59.615C116.311 59.615 116.311 59.615 116.311 59.6151C116.311 59.6151 116.311 59.6151 116.31 59.6151C116.31 59.6151 116.31 59.6151 116.323 61.115C116.335 62.6149 116.335 62.6149 116.335 62.6149C116.335 62.6149 116.336 62.6149 116.336 62.6149C116.336 62.6149 116.336 62.6149 116.336 62.6149C116.337 62.6149 116.338 62.6149 116.339 62.6149C116.341 62.6149 116.344 62.6149 116.349 62.6148C116.358 62.6148 116.371 62.6147 116.388 62.6145C116.423 62.6142 116.475 62.6138 116.542 62.6132C116.676 62.6121 116.872 62.6105 117.121 62.6084C117.617 62.6043 118.321 62.5984 119.151 62.5915C120.81 62.5777 122.973 62.5597 124.989 62.5429L124.964 59.543ZM68.9659 126.034C69.0631 127.531 69.0637 127.531 69.0643 127.531C69.0646 127.531 69.0653 127.531 69.066 127.531C69.0673 127.531 69.0689 127.531 69.0709 127.53C69.0748 127.53 69.0801 127.53 69.0867 127.529C69.0999 127.528 69.1185 127.527 69.1423 127.525C69.1898 127.522 69.2583 127.516 69.3468 127.509C69.5238 127.494 69.7809 127.47 70.1112 127.434C70.7716 127.363 71.7251 127.245 72.9153 127.055C75.2945 126.677 78.6265 126.013 82.4587 124.872C90.1088 122.592 99.8351 118.381 107.935 110.644L105.863 108.475C98.2243 115.771 88.9839 119.797 81.602 121.996C77.9183 123.094 74.718 123.731 72.444 124.093C71.3076 124.273 70.4042 124.385 69.7894 124.451C69.482 124.485 69.2469 124.506 69.0911 124.52C69.0132 124.526 68.9551 124.531 68.9178 124.534C68.8991 124.535 68.8856 124.536 68.8773 124.537C68.8732 124.537 68.8704 124.537 68.869 124.537C68.8682 124.537 68.8678 124.537 68.8678 124.537C68.8677 124.537 68.868 124.537 68.8679 124.537C68.8682 124.537 68.8686 124.537 68.9659 126.034ZM108.282 108.979L105.321 101.932L102.556 103.094L105.516 110.141L108.282 108.979ZM105.426 101.387L112.039 94.6682L109.9 92.5639L103.288 99.2829L105.426 101.387ZM106.383 110.968L113.04 113.409L114.073 110.592L107.416 108.151L106.383 110.968ZM116.739 112.578L123.38 105.83L121.242 103.726L114.601 110.474L116.739 112.578ZM111.332 94.6738L113.569 96.8753L115.673 94.7371L113.436 92.5356L111.332 94.6738ZM113.569 96.8753L116.518 99.7783L118.623 97.6401L115.673 94.7372L113.569 96.8753ZM123.352 102.295L121.344 100.318L119.239 102.456L121.248 104.433L123.352 102.295ZM121.344 100.318L118.623 97.6401L116.518 99.7783L119.239 102.456L121.344 100.318ZM121.361 102.439L127.87 95.8246L125.732 93.7203L119.222 100.335L121.361 102.439ZM115.69 96.8584L122.2 90.2437L120.061 88.1394L113.552 94.7541L115.69 96.8584ZM123.38 105.83C124.349 104.846 124.336 103.263 123.352 102.295L121.248 104.433C121.051 104.239 121.048 103.922 121.242 103.726L123.38 105.83ZM113.04 113.409C114.329 113.882 115.776 113.557 116.739 112.578L114.601 110.474C114.463 110.613 114.257 110.66 114.073 110.592L113.04 113.409ZM112.039 94.6682C111.845 94.865 111.528 94.8675 111.332 94.6738L113.436 92.5356C112.452 91.5671 110.869 91.5798 109.9 92.5639L112.039 94.6682ZM105.321 101.932C105.243 101.746 105.285 101.531 105.426 101.387L103.288 99.2829C102.298 100.289 102.009 101.792 102.556 103.094L105.321 101.932ZM124.461 60.0974C124.436 59.7932 124.675 59.5454 124.964 59.543L124.989 62.5429C126.427 62.5309 127.57 61.3013 127.451 59.852L124.461 60.0974Z" fill="white"/>
</svg>
