<svg width="99" height="113" viewBox="0 0 99 113" fill="none" xmlns="http://www.w3.org/2000/svg">
<g filter="url(#filter0_d_0_1)">
<path d="M79.2908 19.8556C71.4194 12.6823 61.2134 8.60735 50.566 8.38655C39.9187 8.16575 29.5525 11.8141 21.3905 18.6549C13.2284 25.4957 7.82444 35.0646 6.1809 45.5867C4.53737 56.1088 6.76584 66.8699 12.453 75.8739C18.1401 84.8779 26.8998 91.5137 37.1074 94.5504C47.3149 97.5871 58.2774 96.8186 67.9614 92.3875C77.6455 87.9563 85.3937 80.1633 89.769 70.4538C94.0072 61.0487 94.8018 50.4637 92.0338 40.5479C91.8854 40.0159 91.3257 39.7179 90.7972 39.8785L87.2367 40.9601C86.7083 41.1206 86.4114 41.6789 86.5581 42.2114C88.9245 50.8017 88.2222 59.9608 84.5529 68.1034C80.7466 76.5503 74.0058 83.33 65.581 87.185C57.1561 91.04 47.619 91.7086 38.7387 89.0667C29.8585 86.4249 22.2377 80.6519 17.2901 72.8187C12.3424 64.9854 10.4037 55.6236 11.8336 46.4696C13.2634 37.3157 17.9647 28.991 25.0655 23.0397C32.1662 17.0884 41.1845 13.9144 50.4474 14.1065C59.7104 14.2986 68.5893 17.8437 75.4372 24.0843L79.2908 19.8556Z" fill="white"/>
<path d="M79.6604 20.1924L79.9972 19.8228L79.6276 19.4861C71.6667 12.2313 61.3448 8.10997 50.5764 7.88666C39.808 7.66335 29.3241 11.3532 21.0693 18.2717C12.8145 25.1902 7.3491 34.8679 5.68689 45.5095C4.02468 56.1512 6.27848 67.0346 12.0302 76.1409C17.782 85.2472 26.6413 91.9584 36.9648 95.0296C47.2883 98.1009 58.3754 97.3236 68.1695 92.8421C77.9636 88.3606 85.7999 80.479 90.2249 70.6593C94.5112 61.1472 95.3148 50.4419 92.5154 40.4134C92.2895 39.6041 91.4416 39.1602 90.6519 39.4001L87.0914 40.4817C86.2955 40.7235 85.8596 41.5586 86.076 42.3442C88.4116 50.8223 87.7184 59.8617 84.0971 67.898C80.3404 76.2345 73.6877 82.9257 65.3729 86.7304C57.0581 90.535 47.6456 91.1948 38.8813 88.5875C30.117 85.9801 22.5958 80.2826 17.7128 72.5517C12.8298 64.8207 10.9164 55.5812 12.3276 46.5468C13.7387 37.5124 18.3786 29.2965 25.3866 23.4229C32.3947 17.5493 41.2951 14.4168 50.437 14.6064C59.579 14.796 68.3419 18.2948 75.1004 24.4539L75.47 24.7906L75.8068 24.4211L79.6604 20.1924Z" stroke="white"/>
</g>
<path d="M80.4712 17.6526L73.0591 24.8119C72.4396 25.4104 72.8161 26.4599 73.6748 26.5281L81.1173 27.1188C81.7005 27.1651 82.1987 26.703 82.1964 26.118L82.1659 18.3679C82.1624 17.4872 81.1046 17.0408 80.4712 17.6526Z" fill="white" stroke="white"/>
<g filter="url(#filter1_d_0_1)">
<path d="M69.4434 0.590766L19.9429 49.9587C19.4712 50.4291 19.5827 51.2205 20.166 51.5423L43.3699 64.3441C43.8142 64.5892 44.0044 65.1282 43.8126 65.5979L28.4612 103.178C28.0445 104.198 29.3421 105.043 30.1068 104.25L79.0458 53.4897C79.517 53.001 79.3746 52.1948 78.7645 51.897L55.7009 40.6408C55.224 40.4081 55.0119 39.8433 55.2178 39.3542L71.0713 1.68674C71.4967 0.675955 70.2199 -0.183648 69.4434 0.590766Z" fill="#D3FCFF"/>
</g>
<defs>
<filter id="filter0_d_0_1" x="0.65332" y="7.37708" width="98" height="98.0001" filterUnits="userSpaceOnUse" color-interpolation-filters="sRGB">
<feFlood flood-opacity="0" result="BackgroundImageFix"/>
<feColorMatrix in="SourceAlpha" type="matrix" values="0 0 0 0 0 0 0 0 0 0 0 0 0 0 0 0 0 0 127 0" result="hardAlpha"/>
<feOffset dy="4"/>
<feGaussianBlur stdDeviation="2"/>
<feComposite in2="hardAlpha" operator="out"/>
<feColorMatrix type="matrix" values="0 0 0 0 0 0 0 0 0 0 0 0 0 0 0 0 0 0 0.25 0"/>
<feBlend mode="normal" in2="BackgroundImageFix" result="effect1_dropShadow_0_1"/>
<feBlend mode="normal" in="SourceGraphic" in2="effect1_dropShadow_0_1" result="shape"/>
</filter>
<filter id="filter1_d_0_1" x="15.6494" y="0.291687" width="67.6768" height="112.271" filterUnits="userSpaceOnUse" color-interpolation-filters="sRGB">
<feFlood flood-opacity="0" result="BackgroundImageFix"/>
<feColorMatrix in="SourceAlpha" type="matrix" values="0 0 0 0 0 0 0 0 0 0 0 0 0 0 0 0 0 0 127 0" result="hardAlpha"/>
<feOffset dy="4"/>
<feGaussianBlur stdDeviation="2"/>
<feComposite in2="hardAlpha" operator="out"/>
<feColorMatrix type="matrix" values="0 0 0 0 0 0 0 0 0 0 0 0 0 0 0 0 0 0 0.25 0"/>
<feBlend mode="normal" in2="BackgroundImageFix" result="effect1_dropShadow_0_1"/>
<feBlend mode="normal" in="SourceGraphic" in2="effect1_dropShadow_0_1" result="shape"/>
</filter>
</defs>
</svg>
